<?xml version="1.0" encoding="utf-8"?>
<!-- Generator: Adobe Illustrator 19.0.0, SVG Export Plug-In . SVG Version: 6.00 Build 0)  -->
<svg version="1.1" id="Layer_1" xmlns="http://www.w3.org/2000/svg" xmlns:xlink="http://www.w3.org/1999/xlink" x="0px" y="0px"
	 viewBox="-289 380 33 33" style="enable-background:new -289 380 33 33;" xml:space="preserve">
<style type="text/css">
	.st0{fill:#FA4A0C;}
</style>
<path class="st0" d="M-259.6,382.5h-25.8c-0.7,0-1.1,0.5-1.1,1.1v25.8c0,0.7,0.5,1.1,1.1,1.1h25.8c0.7,0,1.1-0.5,1.1-1.1v-25.8
	C-258.5,383-259.1,382.5-259.6,382.5z M-262.9,390.6h-2.2c-1.8,0-2.1,0.8-2.1,2.1v2.7h4.2l-0.6,4.2h-3.6v10.8h-4.4v-10.8h-3.6v-4.2
	h3.6v-3.1c0-3.6,2.2-5.6,5.4-5.6c1.6,0,2.9,0.1,3.3,0.2V390.6L-262.9,390.6z"/>
</svg>
